<?xml version="1.0" encoding="iso-8859-1"?>
<!-- Generator: Adobe Illustrator 18.0.0, SVG Export Plug-In . SVG Version: 6.00 Build 0)  -->
<!DOCTYPE svg PUBLIC "-//W3C//DTD SVG 1.1//EN" "http://www.w3.org/Graphics/SVG/1.1/DTD/svg11.dtd">
<svg version="1.1" id="Capa_1" xmlns="http://www.w3.org/2000/svg" xmlns:xlink="http://www.w3.org/1999/xlink" x="0px" y="0px"
	 viewBox="0 0 279.199 279.199" style="enable-background:new 0 0 279.199 279.199;" xml:space="preserve">
<path d="M271.434,30.921c-4.256-4.255-9.703-6.887-15.59-7.583c-0.714-5.808-3.326-11.332-7.56-15.566
	C243.272,2.76,236.608,0,229.52,0c-7.089,0-13.752,2.76-18.766,7.772c-9.348,9.35-10.248,23.998-2.699,34.372l-19.061,19.059
	c-4.174-1.979-9.312-1.254-12.765,2.199l-21.163,21.161c-40.325,1.288-100.369,33.771-122.692,56.095
	c-40.24,40.24-41.411,88.945-12.091,118.265c29.318,29.319,78.024,28.149,118.265-12.091
	c22.322-22.324,54.803-82.366,56.094-122.691l21.162-21.162c3.454-3.454,4.179-8.593,2.198-12.767l19.057-19.059
	c4.507,3.292,9.922,5.069,15.609,5.069c0,0,0.001,0,0.002,0c7.087,0,13.751-2.76,18.764-7.771
	C281.779,58.104,281.78,41.271,271.434,30.921z M54.588,246.225c-1.465,1.465-3.385,2.197-5.304,2.197
	c-1.919,0-3.839-0.732-5.303-2.196c-17.567-17.566-21.711-42.782-11.084-67.453c1.639-3.804,6.053-5.56,9.854-3.921
	c3.805,1.638,5.56,6.051,3.921,9.855c-8.105,18.819-5.147,37.852,7.914,50.912C57.516,238.547,57.516,243.296,54.588,246.225z
	 M260.828,57.843c-2.18,2.179-5.076,3.379-8.157,3.379h-0.001c-3.082,0-5.979-1.2-8.151-3.371c-0.475-0.476-0.907-0.996-1.321-1.589
	c-1.271-1.818-3.28-2.981-5.49-3.176c-2.209-0.193-4.392,0.598-5.962,2.168l-23.881,23.882l-7.794-7.795l23.883-23.881
	c1.568-1.569,2.362-3.752,2.167-5.963c-0.194-2.21-1.358-4.22-3.178-5.49c-0.598-0.417-1.115-0.848-1.58-1.312
	c-4.498-4.499-4.498-11.819-0.001-16.317C223.54,16.199,226.437,15,229.52,15c3.082,0,5.979,1.2,8.157,3.379
	c2.904,2.903,4.032,7.022,3.018,11.017c-0.65,2.563,0.097,5.28,1.967,7.15c1.871,1.869,4.589,2.616,7.15,1.964
	c0.934-0.237,1.896-0.357,2.863-0.357c3.079,0,5.975,1.199,8.15,3.375C265.325,46.026,265.325,53.346,260.828,57.843z"/>
<g>
</g>
<g>
</g>
<g>
</g>
<g>
</g>
<g>
</g>
<g>
</g>
<g>
</g>
<g>
</g>
<g>
</g>
<g>
</g>
<g>
</g>
<g>
</g>
<g>
</g>
<g>
</g>
<g>
</g>
</svg>
